<svg xmlns="http://www.w3.org/2000/svg" width="521" height="71" viewBox="0 0 137.85 18.79"><defs/><path fill="#fefefe" d="M86.77 18.53l-.68-.2-.65-.34-.64-.34-3.9-2.76-3.9-2.76v-.18l.01-.18 1.6-1.1 1.6-1.09 4.67 3.27 4.68 3.28h9.06l9.07.01V18.79l-10.12-.03-10.13-.02-.67-.2zm21.18-1.07v-1.32h2.91V18.79h-2.91zm3.18 0v-1.32h2.64V18.79h-2.64zm3.17 0v-1.32H116.95V18.79H114.3zm2.91 0v-1.32h2.91V18.79h-2.91zm3.18 0v-1.32h2.64V18.79h-2.64zm2.9 0v-1.32H125.95V18.79h-2.64zm3.18 0v-1.32H129.12V18.79H126.47zm2.91 0v-1.32H132.03V18.79H129.38zm2.91 0v-1.32H134.94V18.79H132.29zm2.91 0v-1.32H137.85V18.79H135.2zm-70.6-2.39l.1-.27 7.92-5.55 7.92-5.55h6.35l-.26.26-.26.26-7.8 5.56-7.8 5.55h-3.12l-3.14.02zM23.2 14.7l-1.02-.36-.8-.75-.78-.75-.36-.68-.36-.69-.17-1.3-.17-1.31.3-1.12.3-1.12.85-.96.84-.97.86-.35.85-.36h1.34v11.11l-.33-.01-.33-.01-1.02-.37zm2.47-.65v-1.08H34.8l1-.28 1.02-.28.8-.72.8-.72.14-1.19.14-1.2-.75-.88-.74-.88-.87-.36-.86-.36h-9.8V3.97h10.56l1.41.53 1.41.53.82.86.81.86.3.58.3.57v2.7l-.37.85-.36.85-.76.72-.76.71-1.33.61-1.32.61-5.36.09-5.36.08zm16.59.18l.8-.86 3.9-4.23 3.9-4.24.83-.46.83-.46h1.18l.69.31.69.32 4.66 5.17 4.67 5.18-1.95.08-1.95.08L59 13.64l-1.48-1.47h-7.79v-.42l.86-.84.86-.83 2.02-.08 2.02-.08-1.24-1.4-1.24-1.41-3.69 3.99-3.68 3.98h-4.21zm47.44-4.7V3.98h2.91v11.11H89.7zm6.53 4.7l.81-.86 3.9-4.23 3.9-4.24.82-.46.84-.46h1.18l.68.31.7.32 4.66 5.17 4.66 5.18-1.95.08-1.95.08-1.48-1.47-1.48-1.47h-7.8v-.42l.87-.84.86-.83 2.02-.08 2.02-.08-1.24-1.4-1.25-1.41-3.68 3.99-3.69 3.98h-4.2zm22.58-4.7V3.98h3.17v9h11.64V15.07H118.8zM4.59 14.33l-1.37-.47-.92-.7-.92-.7-.7-1.38L0 9.69V7.42l.01-2.26L.5 4.1l.48-1.06 1.2-1.1L3.38.83 4.79.4 6.19 0h59.09l1.18.35 1.17.36 3.9 2.75 3.9 2.75-.86.72-.87.72-.86.46-.85.47-1.66-1.15-1.66-1.16L66.2 4.6l-2.45-1.68H6.06l-.75.39-.75.39-.3.84-.3.84L4 7.38l.02 2.01.18.66.18.67.92.46.92.46h12.57v3.18l-6.42-.01-6.42-.01-1.36-.47z"/></svg>