<svg xmlns="http://www.w3.org/2000/svg" viewBox="0 0 63.9 18.82"><path fill="#fff" d="M42.98 18.57c-1.1-.34-1.78-.76-5.87-3.65-4.53-3.2-4.32-2.82-2.3-4.21l1.6-1.1 4.69 3.28 4.67 3.27h9.07l9.06.01v2.65l-10.12-.02c-5.57-.02-10.43-.12-10.8-.23zM20.82 15.1c.05-.15 3.65-2.77 8.01-5.82l7.93-5.55h3.17c2.07 0 3.08.09 2.91.26-.14.14-3.77 2.75-8.05 5.8l-7.8 5.56-3.13.01c-2.03 0-3.1-.09-3.04-.26zm25.35-5.55V4h3.18v9h11.64v2.1H46.18zm-41.45 4.8c-6.4-2.21-6.26-12 .2-13.91C6.8-.11 20.84-.16 22.66.39c.65.2 2.9 1.57 5.08 3.1l3.9 2.76-.87.71c-.48.4-1.25.93-1.72 1.19l-.86.46-1.66-1.15-4.11-2.84-2.46-1.68h-6.88c-8.93 0-9.01.04-8.95 4.47.05 4.25.08 4.26 8.5 4.26h6.29v3.18l-6.42-.01c-5.45 0-6.62-.08-7.78-.48z"/></svg>