<svg xmlns="http://www.w3.org/2000/svg" fill="none" stroke-linecap="square" stroke-miterlimit="10" viewBox="0 0 316 105"><clipPath id="a"><path d="M0 0h316v105H0V0z"/></clipPath><g clip-path="url(#a)"><path fill="none" d="M0 0h316v105H0z"/><path fill="none" d="M-19-18h331.9685v134.1102H-19z"/><path fill="currentColor" d="M61.6719 83.63q3.5625 0 2.75 3.6563l-2.4063 8.25q-.6093 1.9843-2.7343 2.5312-11.2188 3.2656-22.8438 3.2656-11.625 0-20.625-5.4062-9-5.4063-12.4375-15.4532-3.4375-10.0468-.8594-22.2343 2.5938-12.1875 8.625-22.3907 6.0469-10.2187 14.2032-17.5 8.1718-7.2812 18.2656-11.5468 10.1093-4.2813 19.2968-4.2813 9.2032 0 15.8438 2.9844 6.6406 2.9687 10.8906 8.3437 4.25 5.3594 5.6875 13.1094 1.4375 7.7344-.2031 15.4688-1.6406 7.7343-4.0313 13.1718-2.375 5.4375-5.2656 9.3438-2.875 3.8906-6.4531 6.9219-3.5781 3.0312-7.1406 4.9062t-7.4531 3.0781q-6.8126 2.0782-13.8594 2.0782-3.3125-.1563-2.6563-3.25L48.5 77.208q-3.4375 5.1875-13.75 5.1875-9.6875 0-11.2031-9.9219-.6875-4.7812 1.0156-12.7968 1.7188-8.0313 4.2969-14.2969 2.5781-6.2656 3.9218-9.0156 1.3594-2.75 3.3126-5.5782 1.953-2.8437 4.125-4.7656 5.0468-4.375 10.8593-4.375 5.8282 0 8.1407 2.5469 2.328 2.5312 1.4374 3.2656l-.2968-2.5625q.7187-2.2969 3.1562-2.5156l9.2813-.3125q3.625.1406 2.9062 3.6719l-12.9687 40.125q5.1562-.3907 10.1718-5.8438 5.0313-5.4531 7.5-17.0781 1.7188-8.0938-.4218-13.9375-2.125-5.8438-7.2188-8.8594-5.0781-3.0156-13.5-3.0156-8.4062 0-17.5625 5.3594-9.1562 5.3437-15.7968 14.5312-6.625 9.1719-8.922 19.9531-3 14.047 3.0782 21.922 6.0781 7.875 20.9688 7.875 5.7343 0 12.8124-1.5782Q60.9376 83.63 61.672 83.63zM40.3594 59.1456q-1.8282 8.6719 1.6093 8.6719 1.7813 0 3.4063-1.8906 1.6406-1.8907 4.3281-8.8282 2.6875-6.953 3.3594-10.125.6875-3.1875.8125-4t.2813-2.1562q.1718-1.3438.0468-2.0781-.125-.75-.4375-1.5782-.2812-.7187-1.8437-.7187t-3.25 1.9375q-1.6875 1.9219-3.2813 5.6406-3.6406 8.6094-5.0312 15.125zm100.3381-35.9375q2.5469 1 1.875 4.125l-2.875 8.4531q-.7031 2.2813-2.8437 2.2813-2.125 0-3.5-.6719-3.6563-1.7812-5.9688-1.7812-2.2969 0-4.1719 2.0156-1.8593 2.0156-3.7656 6.2812-3.7344 8.375-5.1875 15.2344-1.9062 9 1.5313 9 3.8906 0 6.75-1.0781 2.875-1.0938 4.0156-1.0938 4.0625 0 3.2344 3.875l-2.7344 8.2188q-.5 1.5469-1.1875 1.9375-.6719.375-1.3438.6563-6.3125 1.7343-11.5937 1.7343-5.2813 0-8.3125-1.4687-3.0313-1.4688-4.5313-3.8438-1.5-2.3906-2-5.5469-.8593-5.125.672-12.328 1.5312-7.2188 3.578-12.5 2.047-5.2813 3.7813-8.6407 1.75-3.3594 4.1875-6.5156 2.4375-3.1563 5.2969-5.2657 6.2968-4.6406 14.9218-4.6406 5.6875 0 10.172 1.5625zm-7.3 58.8594q-3.4532-.2813-2.7032-3.9375l21.4688-29.25-3.0782-23.5q.5938-2.8906 3.3438-3l9.2656-.3125q2.5469.1406 2.8906 2.9531l1 10.5469 7.3594-11.1875q1.2344-1.8906 3.0469-2l9.1719-.3125q3.5312.2812 2.75 3.9844l-19.2032 26.8437 3.0157 25.875q-.922 2.8594-3.3282 2.9688l-9.2656.3281q-2.7031-.1406-2.9062-2.9688l-1.2032-13.078-9.3437 13.625q-1.3281 2.0937-3.0625 2.0937l-9.2188.3281zM218.121 3.4737l-24.5937 75.6407q-.3906 1.125-1.1094 1.7968-.7187.672-2.1094.7813l-9.5312.375q-3.2969-.3125-2.6875-3.3438l24.7344-76.078q.3906-1.125 1.1093-1.797.7188-.6718 2.1094-.7812l9.3125-.3281q3.4688.4062 2.7656 3.7343zm29.9237-.7656l-44.8906 95.4063q-.9844 2.4375-3.5156 2.4375l-6.797-1.5938q-2.6718-.8125-2.078-3.5156L235.6542-.1669q.4531-1.0156 1.1406-1.6406.7031-.625 2.3281-.7344l6.4688 1.5313q3.125.5 2.4531 3.7187zm3.4564 75.7344l.7656.1406q-3.75 3.8125-11.4688 3.8125-6.5937 0-8.6875-4.7656-2.0781-4.7656-.7031-11.2031.2187-1.0782.7969-2.8438L244.8137 24.88q.8125-2.3906 3.203-2.5l9.547-.3594q3.2343.3125 2.625 3.4375l-11.9688 36.5781q-.3594 1.1094-.5625 2.0157-.5937 2.8593-.0156 3.4843.5781.6094 3 .6094 2.4375 0 4.4219-.7187l13.828-42.5469q.8126-2.3906 3.2032-2.5l9.5469-.3125q3.2812.3125 2.6094 3.4531l-17.422 53.5781q-.8124 2.3438-3.25 2.547l-9.2343.4218q-3.5781-.1406-2.8437-3.625zm52.0186-57.4844q-3.7031 0-5.5937-2.5469-1.875-2.5625-1.1094-6.1718.7656-3.625 4.0625-6.2969 3.3125-2.6875 7.0156-2.6875t5.6563 2.5469q1.9687 2.5468 1.203 6.1875-.7655 3.625-4.1405 6.2968-3.375 2.672-7.0938 2.672zm5.875 4.7969l-17.3906 53.4063q-.3906 1.1093-1.0938 1.7968-.703.6719-2.125.7813l-9.5312.3281q-3.2813-.3125-2.6719-3.3438l17.5781-53.9374q.8907-2.1876 3.125-2.4063l9.25-.3125q3.5782.2656 2.8594 3.6875z"/></g></svg>