<svg viewBox="200 200 650 650" xmlns="http://www.w3.org/2000/svg"><path d="M729 489c6 0 10-4 10-10V332c0-3-1-5-3-7L620 208c-3-2-5-3-8-3H256c-29 0-51 22-51 51v532c0 29 22 52 51 52h432c29 0 51-23 51-52 0-7-4-12-10-12s-10 4-10 10c0 19-13 33-31 33H256c-17 0-31-13-31-31V256c0-16 15-31 31-31h346-6v72c0 29 24 51 51 51h72v131c0 6 5 10 10 10z" fill="#ddd"/><path d="M329 410h144c6 0 10-4 10-11s-4-10-10-10H329c-6 0-11 4-11 10s5 11 11 11zm0 143c-6 0-11 4-11 10s5 10 11 10h144c6 0 10-4 10-10s-4-10-10-10H329zm236-72c0-6-4-10-10-10H329c-6 0-11 4-11 10s5 11 11 11h226c5 0 10-5 10-11z" fill="#ddd"/><path d="M785 813c8 7 21 7 28 0s8-19 0-28l-73-72a123 123 0 00-94-202 123 123 0 1065 227l74 75zm-138-36a143 143 0 11121-66l24 23 35 36c16 15 16 41 0 56s-41 16-56 0l-3-3-8-8-26-25-26-27c-20 10-40 14-61 14zm-68-142a69 69 0 10137 0 69 69 0 00-137 0zm-21 0a89 89 0 11178 0 89 89 0 01-178 0z" fill="#ddd"/></svg>