<svg viewBox="0 0 41.189 44.759" xmlns="http://www.w3.org/2000/svg"><path d="M32.399 22.378c0 6.52-5.285 11.805-11.804 11.805-6.52 0-11.806-5.285-11.806-11.805s5.285-11.805 11.806-11.805c6.519 0 11.804 5.285 11.804 11.805" fill="#1565c0"/><path d="M22.792 13.533l-.004-.077c-.023-.072-.111-.083-.139-.145.06-.115-.012-.085-.034-.203-.008-.044-.005-.094-.003-.138l.006-.05c.034-.056.163-.03.213-.075.037-.03.068-.166.073-.17l.042-.008c.095-.06-.17-.227.027-.25.115-.015.18-.053.127-.155-.028-.054-.097-.081-.1-.145l-.006-.088-.031-.029c-.028-.049.064-.076.09-.114.023-.036.026-.082.06-.114.045-.044.12-.061.174-.098-.158-.086.005-.187.171-.18a.212.212 0 00.174-.065l-.032.032c.123-.036.093-.335.07-.461-.025.038-.06.04-.096.062-.248.154-.056.122-.733.078-.16-.013-.062-.046-.27-.036.105-.062.406-.09.406-.09-.113-.023-.215-.102-.325-.137-.055-.019-.11-.026-.166-.037-1.064-.204-.779-.019-1.55-.026-.579-.006-.92.187-1.344.195-.149.003-.298.002-.447.002a.72.72 0 01-.263-.041c-.034-.014-.142-.027-.138-.075-.14-.06-.304-.032-.453-.032-.105 0-.21-.007-.315 0h-.002c-.892.203-1.746.506-2.547.897-.294.336-.252.495-.175.66.19.415.25.199.595.466.034.029.185.136.194.149.017.04-.01.112-.061.108a.717.717 0 00-.16-.175c-.15-.096-.005-.027-.114-.106-.037.025-.065.058-.1.084-.34.256-.554.157-.464.592.094.025.147.062.16.166.035.313-.058.272-.217.268a.22.22 0 01-.173-.08c-.032-.036-.04-.498.073-.71.139-.255.062-.186-.041-.212-.276-.038-.224.03-.447.066-.266.04-.392.049-.447.312-.027.122-.1.386-.208.449-.333.187-.85.34-1.226.242-.03-.009-.269-.003-.308-.004-.048-.001-.075-.014-.07.039.023.195.342.165.307.396-.045.023-.141-.006-.185-.013-.19-.04-.084-.006-.2-.011a.328.328 0 01-.179-.087l-.03-.022a11.775 11.775 0 00-1.94 2.806c.006.578.18.278.033.73-.138.418-.448 1.803-.347 2.156.127.454.385.2.371.61-.005.121.142.471.186.5.166.11.05.01.141.177.106.196.184.25.087.45-.024.05-.053.073-.06.124-.036.25.115.452.185.454l.055-.019c.172-.15.089-.207.086-.779l.163.17.048.008c.037.011.036.018.066.057.155.206.107.124.11.352.005.168.084.395.18.53-.046.132.673.45.807.49.213.06.347-.032.48.164.051.06.315.26.407.28.067.014.14-.012.202.018.204.1.23.233.309.39.136.272.467.51.634.556.218-.026.283.02.488.063l.037.008a.554.554 0 01-.003.181c-.024.13-.086.198-.151.31-.126.201-.136.447-.327.661-.042.047-.088.05-.084.317.001.06-.007.33.003.368.034.14.118.184.164.256.025.038.024.085.056.12.042.049.099.09.113.144.013.046.017.08.057.11l.045.025.037.078c.032.075-.069.043-.07.124.047.023.077.027.117.067.352.345.12-.06.535.55.11.162.238.324.323.502.07.144.096.306.173.446.028.053.056.09.064.15.015.11.005.23 0 .339-.015.276-.093.55-.097.828-.006.353-.037.227-.098.531-.037.233-.034 1.229.084 1.548.222.58.26.542.21.894.283.126.572.24.867.343l-.108-.279c.004-.055.055-.093.065-.151.02-.11.002-.236.002-.349 0-.663-.025-.47.385-.542.046-.008.05-.017.06-.062.046-.187-.06-.095-.092-.256-.021-.11.25-.27.358-.283.087-.01.188.018.272-.006.062-.017.054-.06.055-.115 0-.047.005-.11-.013-.159l-.042-.07c-.015-.064.026-.126.07-.166a.194.194 0 01.093-.05c.046-.01.128.018.168-.005l.032-.043c.536-.579-.02-.024.54-.614.036-.037.08-.077.09-.13.022-.13-.013-.115-.05-.168-.05-.064-.073-.342.043-.432.185-.145.564-.332.85-.327.114 0 .408-.38.366-.91-.01-.137-.046-.273-.02-.41a.741.741 0 01.254-.38c.174-.118.063-.011.22-.152.109-.1.071-.145.064-.305a1.55 1.55 0 00-.017-.173l.004-.001c.003-.181.182-.397.035-.513-.075-.06-.287-.039-.339-.102-.026-.03-.012-.079-.018-.114-.016-.082-.108-.16-.194-.168-.032-.002-.07.007-.102.007a.53.53 0 01-.32-.08c-.093-.059-.11-.176-.215-.229-.047-.022-.103-.021-.154-.028-.052-.007-.105-.017-.158-.024-.1-.015-.199-.013-.298-.012-.035 0-.104.015-.129-.013-.036-.043-.012-.127-.017-.177-.003-.033-.019-.062-.025-.094-.028-.128.026-.224-.05-.33-.04-.057-.076-.063-.14-.069-.258-.026-.952-.38-1.033-.476-.148-.174-.007-.4-.23-.46-.137-.038-.123.003-.306-.105-.24-.148-.028-.117-.372-.122-.072 0-.38.037-.44 0-.054-.034-.053-.125-.095-.171-.027-.028-.202-.04-.24-.04-.026.03-.033.046-.066.06-.142.064-.127.08-.213.174-.282.3-1.515.165-1.283-.298a.502.502 0 00.145-.224c.026-.093-.002-.194.015-.29-.22-.018-.179.074-.505-.034-.12-.047-.185-.067-.1-.355.055-.188.142-.138.222-.278.132-.231-.275-.135-.386.069.006.046-.039.107-.13.11-.197.082-.443.123-.64.05-.211-.173-.183-.516-.183-.743 0-.083-.004-.162.017-.244.015-.064.014-.132.036-.194.13-.367.395-.33.774-.257.433.07.328-.04.357-.153.039-.154.35-.174.415-.08.057.084.128.159.183.244.133.202.217.457.242.218.004-.045.02-.088.027-.132.057-.353.096-.127.14-.543l.015-.108c.016-.038.184-.22.291-.281.149-.086.237-.089.297-.245.047-.126.072-.063.099-.22.033-.173.113-.151.147-.282.099-.376.173-.384.379-.463.055-.022.202-.046.222-.11l.004-.098c0-.003.107-.147.167-.206.12-.116.177-.088.328-.088.459 0 .067-.08.465-.08.117 0 .215-.012.332 0 .077-.064.199-.12.214-.224.01-.085-.004-.143-.082-.184-.168-.09-.431.117-.469-.087-.007-.038.004-.08-.005-.118-.01-.044-.04-.081-.052-.124-.018-.06-.011-.123-.011-.185 0-.045-.016-.162.017-.206l.04-.027.034.003c.076.022.077.17.123.235.08.113.075.058.154.007.164-.117.288-.039.3.059l-.01.09c-.024.03-.05.005-.043.055.007.053.085.113.12.147a.619.619 0 00.442.17c.05.001.17.024.214-.004l.047-.077a.325.325 0 00.038-.13c.014-.134.094-.251.114-.384l-.046.008a.759.759 0 01-.108.008.33.33 0 01-.202-.065c-.153-.1-.047-.134-.02-.3a.782.782 0 00-.01-.228c-.136-.271-.383-.382-.6-.438-.07-.019-.086-.036-.087-.115-.001-.087-.011-.19.005-.275.03-.175.112-.37.033-.547-.016-.035-.023-.042-.07-.044l-.07.002-.092-.004c-.051.016-.093.081-.126.117-.04.046-.085.085-.126.129-.028.028-.036.037-.079.03l-.1-.037c-.047-.037-.018-.154-.021-.205-.008-.15-.067-.206-.203-.274-.225-.111-.198-.27-.424-.292-.076-.007-.176-.017-.24.029.014.045.008.672.008.72-.002.147.054.287.032.436-.011.066-.07.19-.159.184-.104-.007-.256-.168-.329-.153l-.04.043a3.794 3.794 0 01-.022.171l-.035.155a15.17 15.17 0 00-.112.514c-.177-.262-.071.006-.257-.524-.02-.056-.012-.143-.049-.19-.039-.049-.144-.047-.198-.064-.114-.034-.216-.09-.327-.136-.636-.264-.657-.06-.657-.427.004-.347.444-.572.715-.794.22-.181.092-.158.355-.336.153-.101.291-.304.454-.322.055-.005.15.018.197-.01.047-.027.214-.297.208-.387-.003-.044-.014-.02-.032-.052v-.073c.035-.323.366-.266.679-.176.034.027.051.1.069.14.09.207.132.09.253.233.08.093.051.265-.229.386-.16.117-.518.03-.423.224.014.03.018.032.054.045.168.064.621.356.68.5.026.06.075.165.151.176a.534.534 0 00.16-.005c.047-.012.102-.053.138-.079a.608.608 0 00.15-.14c.05-.065.041-.117.052-.194.006-.046.021-.088.01-.136-.063.006-.176-.013-.192-.083-.008-.037-.008-.095-.013-.132a.618.618 0 01-.001-.175c.062-.01.1.035.143.072l.058.03c.032.012.056.033.086.048.068.03.162.015.236.015.095-.001.175-.064.252-.116l-.082-.092-.05-.054c-.03-.031-.065-.058-.082-.1l-.012-.058-.014-.037-.045-.03a2.177 2.177 0 00-.169-.101c-.117-.063-.034-.237-.08-.343-.026-.06-.397-.394-.654-.51-.141-.061-.122-.02-.22-.134-.044-.05-.1-.09-.143-.143-.065-.081-.07-.182-.123-.268-.032-.052-.048-.146.003-.197l.069-.038a1.14 1.14 0 01.12-.065c.614-.287.187-.26.915-.595.046-.022.085-.054.125-.083.062-.047.133-.056.193-.104a.473.473 0 01.13-.083c.052-.02.321.01.363.043.05.04-.005.126-.037.16-.085.089-.33.087-.41.046-.187-.1-.329.042-.424.222-.016.03-.126.267-.107.306.02.036.421.131.462.14.042.007.081.017.124.03.043.012.087.033.131.036.525.015.89.27.91.371.086.459.173.175.326.528.291.675-.833.363-.395 1.226.364.717.204.955.602 1.142.576.265.201-.09 1.083-1.07.05-.052.253-.236.322-.24.127-.01.333-.126.453-.159.042-.01.072.004.115-.004.035-.1.211-.16.317-.164.203-.082-.063-.068.393-.078.277-.006.23-.077.226-.162l.022-.078c.24-.027.076.015.276-.122l.045.001.13-.093M30.029 19.461c-.056.02-.112.023-.152-.02-.071-.075-.175-.11-.265-.16-.098-.053-.22-.03-.328-.03-.312 0-.178-.016-.371.086-.208.11-.188.034-.26-.121-.031-.067-.102-.112-.156-.16.073-.053.016.01.131-.119.04-.044.05-.101.084-.148a.86.86 0 00.115-.122 1.55 1.55 0 01.088-.112l-.014.028.055.023.043.044c.087.077.701.311.807.334.17.035.074-.045.236.102.145.127.085.339-.013.375zm1.897 2.508c-.042 0-.359-.129-.477-.155-.15-.033-.174-.166-.239-.292-.099-.19-.108-.178-.149-.368-.011-.057-.053-.104-.048-.166.443.6.327.57.691.752.142.07.292.102.427.19.084.055.177.092.264.143a11.752 11.752 0 00-2.67-7.178c-.078-.018-.148.037-.204.077-.175.13-.148-.294-.124-.395-.063-.06-.179-.06-.258-.102-.058-.032-.107-.077-.167-.104-.065-.03-.121-.037-.168-.098-.035-.045-.05-.102-.093-.14-.053-.048-.14-.067-.202-.1-.838-.456-.357-.464-1.61.098-.159.072-.303.147-.338.338-.063.353.163-.014-.352.632-.083.099-.178.22-.297.283a.672.672 0 00-.18.125c-.063.061-.15.12-.17.208-.024.105.045.136.129.184.512.29.122.421.576.361.373-.055.314.046.318.297 0 .059.037.21-.017.248-.05.033-.204-.002-.235-.045-.027-.04-.007-.068-.008-.113-.005-.08-.031-.111-.109-.112-.152 0-.268.36-.258.509a.15.15 0 01.032.106c-.052.025-.104.021-.156.05-.291.156-.327.414-.427.629-.054.007-.096-.01-.151.008a.19.19 0 01-.09.047c-.232.068-.29.177-.599.177-.054 0-.128-.026-.161.022-.014.169.144.28.298.324.117.117.278.325.275.49-.353.178-.653-.24-.944.12-.354.43-.154.382-.102.796.008.055-.019.159.007.202.071.128.914.155 1.136-.092.092-.1.01-.245.057-.368.188-.499.539-.4.886-.748.05-.058.174-.104.252-.05.082.058.117.162.191.227h.001c.065.066.452.202.434.183.04.042.145.337.134.47a.892.892 0 01-.128.36c.05.01.461.05.45-.074-.002-.035-.056-.078-.092-.112-.071-.065-.072-.164.029-.21l.067-.022c.012 0 .208.007.426-.007.12.025.075.131.128.223.054.093.252.172.322.326a.801.801 0 00-.002-.217c-.02-.079-.053-.146.023-.168.073-.024.07.04.173-.024.136-.034.144.156.157.294.018.156.098.266.21.3a.288.288 0 00.21-.027h.003l.053-.032c.045-.056.143-.03.235-.053.086.048.096.132.064.226a1.64 1.64 0 00.016.347c.078-.001.086.129.064.2-.037.01-.887.002-1.328-.061a.471.471 0 01-.26-.132c-.059-.053-.095-.137-.176-.14-.066.1-.116.197-.15.306v.001l-.024.09c.03 0 .06.01.066.046-.061.053-.18.016-.253-.022h-.002a.283.283 0 01-.138-.125v-.001c-.118-.218-.08-.274-.495-.39l-.02-.006-.146-.04c-.043.005-.065-.01-.066-.045-.043-.06-.011-.18-.044-.254l-.054-.067c-.016-.061.071-.135.105-.173-.068-.014-.86-.007-.93-.008-.176.004-.127-.001-.19.123-.365.726-1.407.202-1.63 1.117-.026.115.005.075.077.103 0 .087-.04.238-.129.202h-.076c-.351.167-.386.378-.442.683-.071.377-.245.869-.338 1.19-.032.11-.078.225-.098.34a4.32 4.32 0 00-.02.37c-.029.37.122.651.374.829.305.213 1.875.277 2.22.182.352-.1.448-.317.583.066l.061.171c.162.035.418-.084.538-.186l-.13.625c-.082.24-.368.567-.126.58.07.003.08.01.135.056.795.638.065 1.11-.023 1.979-.09.85.03.752.076 1.105.012.083.012.168.031.25.016.063.048.122.06.187.018.103 0 .192.04.294.05.12.31.842.311.842.049.05.55.073.759-.073.106-.074.192-.168.3-.24 1.013-.67.767-.132 1.356-1.679.187-.499.277-.446.426-.529.647-.358.56-.718.619-1.089.042-.263.098-.598-.044-.893-.037-.056-.102-.093-.14-.148-.03-.043-.036-.094-.06-.14.148-.1.201-.15.37-.21.484-.171.44-.34.678-.721.092-.148.581-.83.624-.981.017-.061.031-.24-.018-.284-.03-.029-.118-.001-.158-.004-.084-.006-.154-.063-.238-.082a.554.554 0 00-.323 0l-.087.053c-.137.04-.224-.12-.327-.182-.292-.18-.573-.42-.724-.736-.063-.13-.12-.265-.185-.395a.664.664 0 01-.064-.17c-.03-.147-.083-.282-.105-.431-.031-.201-.099-.42-.074-.625.086.111.173.227.234.354.083.178.15.364.229.544.044.1.095.19.155.283.05.083.07.175.102.265.076.199.197.387.356.524.08.07.214.153.258.254.023.055.004.104.064.141.087.055.311-.043.375-.099.574-.5 1.014-.638 1.007-1.276-.002-.13.043-.366-.042-.471-.055-.068-.152-.048-.225-.048" fill="#50c39e"/><path d="M28.232 20.124l-.01.07.01-.07M20.595 40.138c-.816 0-1.69-2.304-2.299-6.177-.47-3.022-.785-6.998-.785-11.584 0-4.586.315-8.563.785-11.584.61-3.869 1.483-6.172 2.299-6.172.816 0 1.688 2.303 2.298 6.172.18.036.361.077.537.123-.604-3.997-1.56-6.812-2.835-6.812-1.281 0-2.237 2.815-2.836 6.812-.506 3.316-.764 7.443-.764 11.46 0 4.018.258 8.145.764 11.46.6 4.003 1.555 6.818 2.836 6.818 1.275 0 2.23-2.815 2.835-6.817a9.145 9.145 0 01-.537.124c-.61 3.873-1.482 6.177-2.298 6.177" fill="#eaedf1"/><path d="M33.408 24.856a31.362 31.362 0 00-1.136-.713c-.031.186-.062.367-.098.547.33.202.65.398.955.6 3.186 2.065 4.09 3.362 3.873 3.883-.217.522-1.771.8-5.49.01-6.913-1.503-16.51-5.458-22.496-9.12-.33-.196-.651-.398-.956-.594-3.186-2.071-4.09-3.368-3.873-3.889.119-.284.65-.5 1.725-.5.873 0 2.102.138 3.765.495.356.077.718.16 1.095.248.103-.15.211-.305.32-.45-.45-.113-.888-.217-1.312-.304-3.62-.77-5.665-.667-6.068.315-.408.981.96 2.5 4.07 4.519.36.232.738.47 1.136.713 6.42 3.876 16.327 7.797 22.486 9.074 1.596.335 2.882.506 3.858.506 1.245 0 1.988-.274 2.216-.827.408-.976-.966-2.5-4.07-4.513" fill="#eaedf1"/><path d="M37.478 15.384c-.408-.981-2.448-1.085-6.074-.315-.424.087-.857.19-1.307.304.109.145.212.3.315.45.378-.088.744-.17 1.1-.248 1.663-.357 2.893-.496 3.766-.496 1.074 0 1.6.217 1.724.501.217.521-.686 1.818-3.873 3.89-.305.195-.625.397-.955.593-2.794 1.71-6.44 3.522-10.402 5.164-3.966 1.643-7.819 2.94-11 3.709-.377.087-.739.17-1.095.248-3.719.79-5.273.51-5.49-.01-.217-.522.687-1.819 3.873-3.885.305-.2.625-.397.956-.599-.036-.18-.067-.361-.098-.547-.398.237-.775.475-1.137.713-3.109 2.014-4.477 3.537-4.07 4.513.228.553.966.827 2.216.827.976 0 2.262-.17 3.853-.506.424-.088.863-.191 1.312-.305 3.17-.78 6.977-2.066 10.882-3.682 3.904-1.622 7.509-3.404 10.298-5.087.397-.243.774-.48 1.136-.713 3.104-2.02 4.478-3.538 4.07-4.519" fill="#eaedf1"/><path d="M7.404 15.25c0 1.061-.444 2.016-1.158 2.69a3.675 3.675 0 01-2.544 1.012 3.68 3.68 0 01-2.54-1.008A3.677 3.677 0 010 15.25a3.699 3.699 0 013.702-3.702 3.699 3.699 0 013.702 3.702" fill="#f2564e"/><path d="M6.246 17.54v.4a3.675 3.675 0 01-2.544 1.012 3.68 3.68 0 01-2.54-1.008v-.405a.75.75 0 01.599-.735l1.254-.255v-.335a1.24 1.24 0 01-.546-.88.66.66 0 01-.167-.357c-.04-.224.027-.409.145-.418-.228-.62.124-1.114.15-1.136a.61.61 0 01.308-.158l.031-.036c.581-.594 1.598-.087 1.7 0 .105.084.193.19.255.309a.468.468 0 00.057.092c.127.203.097.608.022.933.11.018.171.199.132.414a.661.661 0 01-.167.357c-.044.37-.251.686-.546.88v.335l1.254.255a.75.75 0 01.603.735" fill="#fff"/><path d="M41.19 29.506c0 1.06-.446 2.016-1.159 2.69a3.676 3.676 0 01-2.544 1.012 3.68 3.68 0 01-2.54-1.008 3.676 3.676 0 01-1.162-2.694 3.699 3.699 0 013.702-3.702 3.7 3.7 0 013.702 3.702" fill="#f2564e"/><path d="M40.031 31.795v.4a3.676 3.676 0 01-2.544 1.013 3.68 3.68 0 01-2.54-1.008v-.405a.75.75 0 01.599-.735l1.254-.255v-.335a1.238 1.238 0 01-.546-.88.658.658 0 01-.167-.357c-.04-.224.026-.41.145-.418-.229-.62.124-1.114.15-1.136a.608.608 0 01.308-.158l.03-.036c.582-.594 1.599-.088 1.7 0 .106.084.194.19.256.309a.442.442 0 00.057.092c.128.202.097.607.022.933.11.018.172.198.132.414a.658.658 0 01-.168.357c-.043.37-.25.686-.545.88v.335l1.254.255a.75.75 0 01.603.735" fill="#fff"/><path d="M23.857 3.702a3.687 3.687 0 01-1.158 2.69 3.675 3.675 0 01-2.544 1.012 3.68 3.68 0 01-2.54-1.008 3.676 3.676 0 01-1.162-2.694A3.699 3.699 0 0120.155 0a3.699 3.699 0 013.702 3.702" fill="#fbcd40"/><path d="M22.7 5.99v.402a3.675 3.675 0 01-2.545 1.012 3.68 3.68 0 01-2.54-1.008V5.99a.75.75 0 01.599-.735l.339-.07.405-.08.374-.08.136-.026v-.334a1.24 1.24 0 01-.545-.88.66.66 0 01-.168-.357c-.04-.225.027-.41.146-.418-.23-.621.123-1.114.15-1.136a.61.61 0 01.307-.158l.031-.036c.581-.594 1.598-.088 1.7 0 .105.084.193.19.255.308a.48.48 0 00.057.093c.127.203.097.607.022.933.11.018.171.198.132.414a.66.66 0 01-.167.357c-.044.37-.251.686-.546.88V5h.004l.132.027.136.03.243.05.317.06.422.089a.75.75 0 01.603.735" fill="#fff"/><path d="M23.972 41.056a3.685 3.685 0 01-1.158 2.69 3.674 3.674 0 01-2.544 1.013 3.68 3.68 0 01-2.54-1.009 3.676 3.676 0 01-1.162-2.694 3.699 3.699 0 013.702-3.701 3.699 3.699 0 013.702 3.701" fill="#fbcd40"/><path d="M22.814 43.345v.4a3.674 3.674 0 01-2.544 1.014 3.68 3.68 0 01-2.54-1.009v-.405a.75.75 0 01.598-.735l1.255-.255v-.335a1.24 1.24 0 01-.546-.88.66.66 0 01-.167-.356c-.04-.225.026-.41.145-.419-.229-.62.123-1.114.15-1.135a.61.61 0 01.308-.159l.03-.035c.582-.594 1.599-.088 1.7 0a.96.96 0 01.255.308.48.48 0 00.057.093c.128.202.097.607.023.933.11.017.171.198.132.414a.66.66 0 01-.168.356c-.044.37-.25.687-.545.88v.335s.33.07.831.167l.423.088a.75.75 0 01.603.735" fill="#fff"/><path d="M40.845 15.793c0 1.061-.445 2.016-1.158 2.69a3.674 3.674 0 01-2.544 1.012c-.987 0-1.88-.383-2.54-1.008a3.676 3.676 0 01-1.162-2.694 3.699 3.699 0 013.702-3.702 3.7 3.7 0 013.702 3.702" fill="#96ddf8"/><path d="M39.687 18.082v.4a3.674 3.674 0 01-2.544 1.013c-.987 0-1.88-.383-2.54-1.008v-.405a.75.75 0 01.598-.735c.234-.049 1.251-.255 1.255-.255v-.335a1.24 1.24 0 01-.546-.88.657.657 0 01-.167-.357c-.04-.224.026-.41.145-.418-.229-.62.123-1.114.15-1.136a.611.611 0 01.308-.158l.03-.035c.582-.595 1.599-.088 1.7 0a.96.96 0 01.255.308.442.442 0 00.057.092c.128.203.097.608.022.934.11.017.172.198.132.413a.657.657 0 01-.167.357c-.044.37-.25.687-.546.88v.335l1.255.255a.75.75 0 01.603.735" fill="#fff"/><path d="M7.748 28.963a3.687 3.687 0 01-1.157 2.69 3.674 3.674 0 01-2.545 1.012 3.68 3.68 0 01-2.54-1.008 3.676 3.676 0 01-1.162-2.694 3.699 3.699 0 013.702-3.702 3.699 3.699 0 013.702 3.702" fill="#96ddf8"/><path d="M6.59 31.252v.4a3.674 3.674 0 01-2.544 1.013 3.68 3.68 0 01-2.54-1.008v-.405a.75.75 0 01.6-.735c.102-.022 1.214-.248 1.254-.256v-.334a1.24 1.24 0 01-.546-.88.66.66 0 01-.167-.357c-.04-.225.026-.41.145-.418-.23-.62.123-1.114.15-1.136a.61.61 0 01.308-.158l.03-.036c.582-.594 1.598-.088 1.7 0a.96.96 0 01.255.308.46.46 0 00.057.093c.128.203.097.608.022.933.11.018.172.198.132.414a.66.66 0 01-.167.357c-.044.37-.25.686-.546.88v.334s.33.07.832.167l.423.089a.75.75 0 01.603.735" fill="#fff"/></svg>