<svg xmlns="http://www.w3.org/2000/svg" xml:space="preserve" viewBox="0 0 108 108"><style>.st0,.st1{fill:#ccc}</style><path d="m53.3 52-12.2-4.6v11.7l12.2 4.5zm34.5 0v11.6l12.2-4.5V47.4zM53.3 38l-12.2-4.6v11.7l12.2 4.5zm34.5 0v11.6l12.2-4.5V33.4zM68.6 17.6l-12.2-4.5v11.7l12.2 4.5zM87.8 24v11.6l12.2-4.5V19.4z" class="st0"/><path d="m86 22.3 14-5.2-13.5-5-2.3.9-10.8 4.3zM57.7 11.1l12.9 5.1 12.8-5.1.2-.1-13-4.8-13 4.8zM41.6 31.3l12.8 4.9 12.9-4.9.1-.1-13-4.6-13 4.6z" class="st1"/><path d="m85.6 38.5-12.8-4.8-1.5-.5v11.7l14.3 5.3zm0-14-12.8-4.8-1.5-.5v11.7l14.3 5.3z" class="st0"/><path d="m70.6 46.6-12.6 5 12.6 4.6 12.5-4.6z" class="st1"/><path d="m69.7 58.3-12.9-4.8-1.4-.5v11.6l14.3 5.3zm14.6-4.8-12.6 4.6v11.7l14-5.2V53z" class="st0"/><path d="m20.5 54.2-10.3 4.9 10.3 4.7 10.3-4.7z" class="st1"/><path d="M19.8 65.8 9.2 61 8 60.5v11.6l11.8 5.3zM31.9 61l-10.4 4.7v11.6L33 72.1V60.5z" class="st0"/><path d="m23.4 78.5-10.3 5 10.3 4.7 10.3-4.7z" class="st1"/><path d="m22.7 90.2-10.6-4.8-1.2-.5v11.6l11.8 5.3zm12-4.8-10.3 4.7v11.6l11.5-5.2V84.9z" class="st0"/><path d="m53.1 69.9-10.3 5 10.3 4.6 10.3-4.6z" class="st1"/><path d="m52.4 81.6-10.6-4.8-1.2-.5v11.6l11.8 5.3zm12-4.8-10.3 4.6v11.7l11.5-5.2V76.3zm3.7-43.5L55.5 38v11.6l14-5.2V32.8z" class="st0"/></svg>