<svg viewBox="0 0 44.682 52.909" xmlns="http://www.w3.org/2000/svg"><path d="M40.4 49.794H4.28V27.22c0-.861.698-1.556 1.557-1.556h33.006c.86 0 1.555.695 1.555 1.556v22.574" fill="#30445b"/><path d="M42.54 52.909H2.142A2.142 2.142 0 010 50.768v-.974h44.682v.974c0 1.181-.96 2.14-2.141 2.14" fill="#fff"/><path d="M38.3 48.238H6.383V27.763H38.3v20.475" fill="#f2564e"/><path d="M26.698 50.591l.278-.762h-9.27l.278.762h8.714" fill="#e9ecf1"/><path d="M26.246 27.763h-7.81c.088-.71.148-1.415.197-2.1h7.415c.046.685.113 1.39.198 2.1" fill="#29364a"/><path d="M28.253 39.055c-.039 0-.077 0-.113.004-.06.003-.123.014-.187.021a4.914 4.914 0 00-4.91-3.344 4.915 4.915 0 00-4.025 2.494 3.882 3.882 0 00-1.595-.247 3.559 3.559 0 00-.48.053c2.537-5.358 3.076-11.775 3.059-16.386h4.685c-.022 4.907.589 11.86 3.566 17.406" fill="#e9ecf1"/><path d="M33.213 16.523c-4.004-2.269-6.089-5.532-7.165-8.425a.837.837 0 00-.79-.552v13.133h8.559v-3.125a1.19 1.19 0 00-.604-1.03M18.633 8.098c-1.076 2.893-3.16 6.156-7.165 8.425a1.19 1.19 0 00-.603 1.03v3.126h8.558V7.546a.844.844 0 00-.79.552" fill="#30445b"/><path d="M25.258 21.65V7.334C25.258 5.723 23.953 0 22.341 0c-1.612 0-2.918 5.723-2.918 7.335v14.314h5.835" fill="#fff"/><path d="M24.313 2.786c-.6-.4-1.267-.626-1.972-.626-.706 0-1.373.225-1.972.626C20.89 1.27 21.582 0 22.34 0c.758 0 1.453 1.271 1.972 2.786" fill="#30445b"/><path d="M33.817 20.7v-3.273c-5.857-2.593-7.885-6.95-8.559-9.905V20.7h8.559" fill="#fff"/><path d="M25.798 9.315a14.198 14.198 0 01-.54-1.793V20.7h.54V9.315" fill="#e9ecf1"/><path d="M19.423 20.68V7.498c-.674 2.955-2.702 7.312-8.558 9.903v3.277h8.558" fill="#fff"/><path d="M24.468 5.306c-.536-.347-1.291-.562-2.127-.562-.836 0-1.591.215-2.128.562a2.273 2.273 0 014.255 0" fill="#96ddf8"/><path d="M28.959 21.65c.053-.449.085-.95.085-1.472 0-1.993-.438-3.609-.978-3.609-.536 0-.973 1.616-.973 3.61 0 .521.031 1.022.084 1.47h1.782M31.654 21.65c.053-.449.085-.95.085-1.472 0-1.993-.438-3.609-.977-3.609-.54 0-.974 1.616-.974 3.61 0 .521.028 1.022.085 1.47h1.781M14.809 21.65c.056-.449.085-.95.085-1.472 0-1.993-.434-3.609-.974-3.609s-.974 1.616-.974 3.61c0 .521.028 1.022.085 1.47h1.778M17.504 21.65c.057-.449.085-.95.085-1.472 0-1.993-.438-3.609-.974-3.609-.54 0-.977 1.616-.977 3.61 0 .521.032 1.022.085 1.47h1.781" fill="#30445b"/><path d="M9.01 48.238h26.542a4.111 4.111 0 00-3.433-6.329 3.925 3.925 0 00-3.975-2.85c-.064.003-.124.014-.187.021a4.921 4.921 0 00-4.914-3.344 4.926 4.926 0 00-4.029 2.494 3.917 3.917 0 00-1.591-.25 3.947 3.947 0 00-3.74 3.922c-.349-.07-.709-.102-1.079-.084a4.353 4.353 0 00-4.12 4.568c.035.674.222 1.298.525 1.852" fill="#fff"/><path d="M18.883 9.315c.24-.633.413-1.237.54-1.793V20.7h-.54V9.315M10.392 47.074a3.287 3.287 0 015.172-2.695 3.287 3.287 0 00-5.98 1.887c0 .74.247 1.422.663 1.972h.36a3.28 3.28 0 01-.215-1.164M28.634 40.294a2.428 2.428 0 011.394 4.42c.278-.395.44-.875.44-1.394a2.434 2.434 0 00-3.827-1.99 2.428 2.428 0 011.993-1.036" fill="#e9ecf1"/></svg>