<svg viewBox="0 0 51.809 49.38" xmlns="http://www.w3.org/2000/svg"><path d="M10.925 12.607a4.337 4.337 0 110-8.673 4.338 4.338 0 014.336 4.335 4.338 4.338 0 01-4.336 4.338zm8.163-3.418V7.154l-1.39-.292a6.908 6.908 0 00-1.079-2.521l.797-1.224-1.436-1.44-1.248.816a6.907 6.907 0 00-2.48-1.014l-.31-1.474H9.906l-.31 1.475a6.879 6.879 0 00-2.48 1.013L5.87 1.678 4.43 3.117l.8 1.224c-.517.747-.891 1.6-1.082 2.521l-1.39.292v2.035l1.353.284a6.88 6.88 0 001.053 2.63l-.734 1.123 1.44 1.44 1.1-.72a6.884 6.884 0 002.67 1.123l.267 1.269h2.034l.268-1.27a6.886 6.886 0 002.67-1.12l1.101.717 1.436-1.439-.73-1.123a6.914 6.914 0 001.051-2.63l1.351-.284" fill="#fff"/><path d="M37.13 4.332c-.283 0-.547.058-.79.161V0h-4.643a2.004 2.004 0 01-1.693 3.075 2.007 2.007 0 01-2.008-2.005c0-.394.117-.76.314-1.07h-4.646v4.493a2.004 2.004 0 012.794 1.845 2.008 2.008 0 01-2.794 1.845v4.492h4.646c-.197.31-.314.676-.314 1.07a2.004 2.004 0 103.7-1.07h4.643V8.182a2.008 2.008 0 002.794-1.844 2.004 2.004 0 00-2.003-2.006" fill="#e9ecf1"/><path d="M49.805 4.332c-.282 0-.547.058-.79.161V0h-4.643a2.004 2.004 0 01-1.693 3.075A2.007 2.007 0 0140.67 1.07c0-.394.117-.76.314-1.07H36.34v4.493a2.004 2.004 0 012.794 1.845 2.008 2.008 0 01-2.794 1.845v4.492h4.646c-.197.31-.314.676-.314 1.07 0 1.107.9 2.005 2.008 2.005a2.004 2.004 0 001.693-3.075h4.643V8.182a2.008 2.008 0 002.794-1.844 2.004 2.004 0 00-2.004-2.006" fill="#f2564e"/><path d="M49.805 17c-.282 0-.547.058-.79.161V12.67h-4.643a2.004 2.004 0 01-1.693 3.075 2.007 2.007 0 01-2.008-2.006c0-.393.117-.76.314-1.07H36.34v4.493a2.004 2.004 0 012.794 1.845 2.008 2.008 0 01-2.794 1.845v4.493h4.646c-.197.31-.314.675-.314 1.07 0 1.107.9 2.005 2.008 2.005a2.004 2.004 0 001.693-3.075h4.643V20.85a2.008 2.008 0 002.794-1.845A2.004 2.004 0 0049.805 17" fill="#fff"/><path d="M26.821 35.046c-.123-.62-1.023-1.765-1.023-1.765l-.808-1.207c-.215-2.307-1.361-2.733-1.88-2.807l-1.81-2.704a5.94 5.94 0 00-2.155-1.975c-1.04-.55-1.955-1.6-1.955-1.6-1.566-1.204-3.252 0-3.252 0L5.63 28.404c-1.626 1.024-2.047 2.107-4.575 10.776A23.932 23.932 0 010 42.105v7.275h13.049c1.351-2.422 1.792-4.6 1.792-4.6 2.41-1.385 2.89-3.372 2.89-3.372 1.703.438 3.912-1.337 3.912-1.337-.777 1.117-.156 1.8-.156 1.8 1.179 2.388 3.101-.28 3.101-.28 3.196 1.179 1.955-2.792 1.955-2.792 3.224-.651.278-3.753.278-3.753" fill="#fbcd40"/><path d="M26.543 38.8s-2.7.137-3.348-1.819c0 0-.607-1.356-1.567-.96 0 0 1.225.306 1.306 1.09 0 0 .44 2.617 3.753 2.29l-.144-.601M20.348 36.788s.885 1.62 2.258 1.69c0 0 .091 3.267 1.982 3.113 0 0-2.092.544-2.208-2.884 0 0-1.277-.165-2.25-1.797l.218-.122" fill="#f7ad34"/><path d="M34.04 24.005a1.968 1.968 0 01-2.738 1.809v4.404H26.75a1.967 1.967 0 01-2.25 2.925c.055-.067.105-.13.15-.189.195-.257.294-.579.269-.903-.307-3.88-3.598-2.48-3.598-2.48a58.42 58.42 0 00-1.73.647h-.715v-4.404a1.968 1.968 0 002.738-1.809 1.96 1.96 0 00-.58-1.39 1.955 1.955 0 00-2.158-.418v-4.404h4.55a1.94 1.94 0 00-.306 1.049 1.968 1.968 0 003.933 0c0-.386-.113-.745-.303-1.049h4.55v4.404a1.968 1.968 0 012.738 1.808" fill="#1565c0"/><path d="M18.298 30.59c-.935.432-1.982.957-2.275 1.247-.335.337-.572.83-1.45 1.638-.268-.274-.614-.695-.614-1.04v-.014s-.564-2.116 1.228-2.508c0 0 2.452-.576 3.111.676zm6.04-.774s-.953-1.552-4.456.067c0 0-.204.086-.515.223v-.193c-.05-.154-.427-.273-.427-.273l-.063-.01c-3.507-.56-3.895-5.178-3.895-5.178s-.41 2.406 1.076 3.72c0 0-1.57 2.235-3.037 1.826 0 0-1.33-.324-1.81-1.468 0 0-.24 1.263 1.86 1.997 0 0 .973.938.666 1.928 0 0 .398.734.705 1.14-.55.489-1.33 1.09-2.49 1.831 0 0-.914-3.906-3.848-3.608 0 0 2.85.164 3.777 3.902 0 0 3.82-2.7 4.304-3.652 0 0-.088-.384 2.533-1.494.021-.008.515-.212.65-.266a41.362 41.362 0 01.9-.349 58.42 58.42 0 011.054-.387s3.29-1.4 3.598 2.48c.025.323-.074.644-.268.902-.046.059-.095.122-.152.189-.23.283-.554.631-.963.97-.914.75-2.265 2.496-4.932 3.09 0 0-3.517 4.432-4.103 6.37 0 0-3.263 4.545-4.595 5.807h.307c1.04-1.165 4.285-4.853 4.39-5.556 0 0 2.904-5.61 4.125-6.177 0 0 5.16-2.493 6-4.448a.73.73 0 00.043-.11s.952-1.035-.434-3.273" fill="#f7ad34"/><path d="M21.353 30.443s2.163-2.149 3.659-.495c0 0 1.287 1.441-.452 2.756 0 0-1.072 1.06-1.894.467 0 0-1.284-2.106-1.655-2.248 0 0 .13-.291.342-.48M13.349 8.172a2.425 2.425 0 11-4.851 0 2.425 2.425 0 014.85 0" fill="#fff"/></svg>